<svg xmlns="http://www.w3.org/2000/svg"  viewBox="0 0 512 512" width="128px" height="128px"><path fill="#443c3c" d="M80,48H24A16,16,0,0,0,8,64V488a16,16,0,0,0,16,16H440a16,16,0,0,0,16-16V464Z"/><path fill="#fff" d="M104,464a56,56,0,0,1-56-56V64A16,16,0,0,1,64,48H440a16,16,0,0,1,16,16V408c0,30.928,17.072,56,48,56H104Z"/><path fill="#f75252" d="M456,64a16,16,0,0,0-16-16H64A16,16,0,0,0,48,64v88H456Z"/><path fill="#fff" d="M456,72.4V64a16,16,0,0,0-16-16H64A16,16,0,0,0,48,64V322.377C196.36,101.68,412.051,75.477,456,72.4Z" opacity=".2"/><circle cx="148" cy="100" r="28" fill="#fff"/><circle cx="380" cy="100" r="28" fill="#fff"/><path fill="#f75252" d="M256,344a48,48,0,1,1,48-48A48.054,48.054,0,0,1,256,344Z"/><path d="M504,456c-18.452,0-40-12.571-40-48V64a24.027,24.027,0,0,0-24-24H392V24A24.027,24.027,0,0,0,368,0H336a24.027,24.027,0,0,0-24,24V40H160V24A24.027,24.027,0,0,0,136,0H104A24.027,24.027,0,0,0,80,24V40H24A24.027,24.027,0,0,0,0,64V488a24.027,24.027,0,0,0,24,24H440a24.027,24.027,0,0,0,24-24V472h40a8,8,0,0,0,0-16ZM328,24a8.009,8.009,0,0,1,8-8h32a8.009,8.009,0,0,1,8,8V40H328ZM96,24a8.009,8.009,0,0,1,8-8h32a8.009,8.009,0,0,1,8,8V40H96ZM80,56h64v8.228a36,36,0,1,0,16,1.837V56H376v8.228a36,36,0,1,0,16,1.837V56h48a8.009,8.009,0,0,1,8,8v80H56V64a8.009,8.009,0,0,1,8-8Zm80,28.038A19.967,19.967,0,1,1,144,80.4V104h16Zm232,0A19.967,19.967,0,1,1,376,80.4V104h16ZM448,488a8.009,8.009,0,0,1-8,8H24a8.009,8.009,0,0,1-8-8V64a8.009,8.009,0,0,1,8-8H41.376A23.882,23.882,0,0,0,40,64V408a64.073,64.073,0,0,0,64,64H448ZM104,456a48.054,48.054,0,0,1-48-48V160H448V408c0,17.385,5.03,33.227,14.163,44.605q1.426,1.776,2.961,3.395Z"/><rect width="16" height="16" x="104" y="192"/><rect width="16" height="16" x="176" y="192"/><rect width="16" height="16" x="248" y="192"/><rect width="16" height="16" x="320" y="192"/><rect width="16" height="16" x="392" y="192"/><rect width="16" height="16" x="104" y="288"/><rect width="16" height="16" x="176" y="288"/><rect width="16" height="16" x="248" y="288"/><rect width="16" height="16" x="320" y="288"/><rect width="16" height="16" x="392" y="288"/><rect width="16" height="16" x="104" y="384"/><rect width="16" height="16" x="176" y="384"/><rect width="16" height="16" x="248" y="384"/><rect width="16" height="16" x="320" y="384"/><rect width="16" height="16" x="392" y="384"/><path d="M256,248a48,48,0,1,0,48,48A48.054,48.054,0,0,0,256,248Zm0,80a32,32,0,1,1,32-32A32.036,32.036,0,0,1,256,328Z"/></svg>