<svg xmlns="http://www.w3.org/2000/svg"  viewBox="0 0 512 512" width="128px" height="128px"><rect width="29.333" height="320" x="386.667" y="104" fill="#9B5FAA"/><rect width="26.667" height="320" x="416" y="104" fill="#804B8F"/><rect width="29.333" height="320" x="442.667" y="104" fill="#643773"/><polygon fill="#FAB991" points="429.333,424 429.333,472 418.667,472 386.667,424"/><polygon fill="#F0915A" points="429.333,424 429.333,472 440,472 472,424"/><path fill="#463C4B" d="M418.667,472l7.338,11.008c1.583,2.375,5.073,2.375,6.656,0L440,472H418.667z"/><rect width="85.333" height="24" x="386.667" y="80" fill="#A5C3DC"/><rect width="42.667" height="24" x="386.667" y="80" fill="#D7E6F0"/><path fill="#463C4B" d="M456,40h-53.333c-8.837,0-16,7.163-16,16v24H472V56C472,47.163,464.837,40,456,40z"/><path fill="#555A6E" d="M429.333,40h-26.667c-8.837,0-16,7.163-16,16v24h42.667V40z"/><path fill="#463C4B" d="M232,152c-4.418,0-8-3.582-8-8s3.582-8,8-8c13.233,0,24-10.767,24-24s-10.767-24-24-24 c-4.418,0-8-3.582-8-8s3.582-8,8-8c22.056,0,40,17.944,40,40S254.056,152,232,152z"/><path fill="#463C4B" d="M120,152c-4.418,0-8-3.582-8-8s3.582-8,8-8c13.233,0,24-10.767,24-24s-10.767-24-24-24 c-4.418,0-8-3.582-8-8s3.582-8,8-8c22.056,0,40,17.944,40,40S142.056,152,120,152z"/><path fill="#A5C3DC" d="M328,416H56c-17.673,0-32-14.327-32-32V176h336v208C360,401.673,345.673,416,328,416z"/><path fill="#D7E6F0" d="M280,416H56c-17.673,0-32-14.327-32-32V176h288v208C312,401.673,297.673,416,280,416z"/><path fill="#FAA019" d="M328,112H56c-17.673,0-32,14.327-32,32v32h336v-32C360,126.327,345.673,112,328,112z"/><path fill="#FFD205" d="M280,112H56c-17.673,0-32,14.327-32,32v32h288v-32C312,126.327,297.673,112,280,112z"/><path fill="#555A6E" d="M120,152c-22.056,0-40-17.944-40-40s17.944-40,40-40c4.418,0,8,3.582,8,8s-3.582,8-8,8 c-13.233,0-24,10.767-24,24s10.767,24,24,24c4.418,0,8,3.582,8,8S124.418,152,120,152z"/><path fill="#555A6E" d="M232,152c-22.056,0-40-17.944-40-40s17.944-40,40-40c4.418,0,8,3.582,8,8s-3.582,8-8,8 c-13.233,0-24,10.767-24,24s10.767,24,24,24c4.418,0,8,3.582,8,8S236.418,152,232,152z"/><g><circle cx="136" cy="232" r="24" fill="#A5C3DC"/></g><g><circle cx="200" cy="232" r="24" fill="#A5C3DC"/></g><g><circle cx="264" cy="232" r="24" fill="#A5C3DC"/></g><g><circle cx="72" cy="296" r="24" fill="#A5C3DC"/></g><g><circle cx="136" cy="296" r="24" fill="#A5C3DC"/></g><g><circle cx="200" cy="296" r="24" fill="#A5C3DC"/></g><g><circle cx="264" cy="296" r="24" fill="#A5C3DC"/></g><g><circle cx="72" cy="360" r="24" fill="#A5C3DC"/></g><g><circle cx="136" cy="360" r="24" fill="#A5C3DC"/></g><g><circle cx="200" cy="360" r="24" fill="#A5C3DC"/></g><g><path fill="#555A6E" d="M136,242.667c-2.047,0-4.095-0.781-5.657-2.343l-16-16c-3.125-3.125-3.125-8.189,0-11.314 c3.124-3.123,8.189-3.123,11.313,0L136,223.354l26.343-26.344c3.124-3.123,8.189-3.123,11.313,0 c3.125,3.125,3.125,8.189,0,11.314l-32,32C140.095,241.886,138.047,242.667,136,242.667z"/></g><g><path fill="#555A6E" d="M200,242.667c-2.047,0-4.095-0.781-5.657-2.343l-16-16c-3.125-3.125-3.125-8.189,0-11.314 c3.124-3.123,8.189-3.123,11.313,0L200,223.354l26.343-26.344c3.124-3.123,8.189-3.123,11.313,0 c3.125,3.125,3.125,8.189,0,11.314l-32,32C204.095,241.886,202.047,242.667,200,242.667z"/></g><g><path fill="#555A6E" d="M264,242.667c-2.048,0-4.095-0.781-5.657-2.343l-16-16c-3.125-3.125-3.125-8.189,0-11.314 c3.124-3.123,8.189-3.123,11.313,0L264,223.354l26.343-26.344c3.125-3.123,8.189-3.123,11.314,0 c3.124,3.125,3.124,8.189,0,11.314l-32,32C268.095,241.886,266.048,242.667,264,242.667z"/></g></svg>