<svg xmlns="http://www.w3.org/2000/svg"  viewBox="0 0 128 128" width="128px" height="128px"><path fill="#E6E7E8" d="M123.483,51.611c-3.849-9.683-10.973-16.872-20.604-20.791c-1.42-0.578-2.863-1.072-4.324-1.489 c-1.416-0.819-7.702-4.183-15.389-4.183c-3.117,0-6.345,0.554-9.611,1.648c-1.02-4.809-1.405-9.715-1.777-14.472l-0.031-0.402 C71.706,11.401,71.272,11,70.75,11h-5.5c-0.522,0-0.956,0.401-0.997,0.922l-0.031,0.402c-0.373,4.757-0.757,9.664-1.777,14.472 c-3.266-1.094-6.494-1.648-9.611-1.648c-7.687,0-13.972,3.364-15.389,4.183c-1.46,0.417-2.904,0.912-4.324,1.49 c-9.631,3.919-16.755,11.108-20.604,20.791c-4.62,11.623-3.902,25.677,1.97,38.557c9.9,21.717,29.405,34.172,53.513,34.172 s43.613-12.455,53.514-34.172C127.385,77.288,128.103,63.234,123.483,51.611z"/><path fill="#FA759E" d="M29.497,27.747C40.762,23.163,53.159,23.956,64,28.891c10.841-4.935,23.238-5.728,34.503-1.144 c22.004,8.954,28.624,34.924,18.101,58.006C106.649,107.589,87.081,119.34,64,119.34s-42.649-11.751-52.603-33.587 C0.874,62.67,7.493,36.7,29.497,27.747z"/><path fill="#FFF" d="M64,116.34c-15.554,0-29.638-4.521-40.676-13.159C33.892,113.772,48.114,119.34,64,119.34 c15.886,0,30.107-5.568,40.676-16.158C93.638,111.819,79.554,116.34,64,116.34z"/><path fill="#6DC9F7" d="M71.538,29.483c2.243,0.622,4.844,1.091,7.629,1.091c8.376,0,15.167-4.213,15.167-4.213 s-6.79-4.213-15.167-4.213c-4.002,0-7.631,0.962-10.342,1.967C67.572,18.751,67.169,13.335,66.75,8c-1.833,0-3.667,0-5.5,0 c-0.419,5.335-0.822,10.751-2.075,16.115c-2.71-1.005-6.34-1.967-10.342-1.967c-8.376,0-15.167,4.213-15.167,4.213 s6.79,4.213,15.167,4.213c2.785,0,5.386-0.469,7.629-1.091c-2.026,1.146-4.197,2.654-6.166,4.623 c-5.923,5.923-7.745,13.704-7.745,13.704s7.781-1.822,13.704-7.745c1.969-1.969,3.477-4.14,4.623-6.166 c-0.622,2.243-1.091,4.844-1.091,7.629c0,8.376,4.213,15.167,4.213,15.167s4.213-6.79,4.213-15.167 c0-2.785-0.469-5.386-1.091-7.629c1.146,2.026,2.654,4.197,4.623,6.166c5.923,5.923,13.704,7.745,13.704,7.745 s-1.822-7.781-7.745-13.704C75.734,32.137,73.563,30.629,71.538,29.483z"/><path fill="#3A2C60" d="M7.508,54.299c0.08,0.019,0.159,0.028,0.238,0.028c0.45,0,0.859-0.306,0.971-0.763 c0.811-3.324,2.022-6.468,3.601-9.345c0.266-0.484,0.088-1.092-0.396-1.358c-0.486-0.265-1.093-0.088-1.358,0.396 c-1.663,3.031-2.938,6.339-3.791,9.833C6.643,53.626,6.972,54.168,7.508,54.299z"/><path fill="#3A2C60" d="M119.483,47.611c-3.849-9.683-10.973-16.872-20.604-20.791c-1.417-0.577-2.858-1.07-4.315-1.485 c-1.399-0.81-7.694-4.188-15.397-4.188c-3.118,0-6.346,0.554-9.611,1.649c-1.02-4.809-1.405-9.716-1.777-14.473l-0.031-0.402 C67.706,7.401,67.272,7,66.75,7h-5.5c-0.522,0-0.956,0.401-0.997,0.922l-0.031,0.402c-0.373,4.757-0.757,9.664-1.777,14.473 c-3.265-1.095-6.493-1.649-9.611-1.649c-7.703,0-13.997,3.378-15.397,4.188c-1.458,0.415-2.898,0.908-4.316,1.485 c-6.528,2.656-11.89,6.8-15.935,12.317c-0.326,0.445-0.23,1.071,0.215,1.398c0.446,0.327,1.071,0.229,1.398-0.215 c3.823-5.213,8.895-9.132,15.076-11.647c1.192-0.485,2.408-0.884,3.631-1.246c1.543,0.883,7.76,4.147,15.328,4.147 c0.98,0,1.978-0.057,2.988-0.169c-0.794,0.635-1.539,1.301-2.232,1.994c-6.055,6.055-7.935,13.854-8.012,14.183 c-0.079,0.337,0.022,0.69,0.267,0.935c0.244,0.245,0.596,0.344,0.935,0.267c0.329-0.077,8.127-1.957,14.183-8.012 c0.693-0.693,1.359-1.438,1.994-2.233c-0.112,1.011-0.169,2.008-0.169,2.989c0,8.563,4.185,15.407,4.363,15.694 c0.182,0.294,0.503,0.473,0.85,0.473s0.667-0.179,0.85-0.473c0.178-0.287,4.363-7.131,4.363-15.694 c0-0.98-0.057-1.978-0.169-2.989c0.635,0.794,1.301,1.54,1.994,2.233c6.055,6.055,13.854,7.935,14.183,8.012 c0.337,0.078,0.691-0.022,0.935-0.267c0.245-0.245,0.346-0.598,0.267-0.935c-0.077-0.329-1.957-8.127-8.012-14.183 c-0.693-0.693-1.438-1.359-2.232-1.994c1.01,0.112,2.008,0.169,2.988,0.169c7.569,0,13.786-3.265,15.328-4.147 c1.224,0.362,2.439,0.761,3.631,1.247c9.114,3.708,15.857,10.513,19.499,19.677c4.015,10.101,3.787,22.148-0.517,33.556H10.878 c-2.936-7.762-3.988-15.814-3.044-23.492c0.067-0.548-0.322-1.047-0.871-1.115c-0.543-0.065-1.047,0.322-1.115,0.871 c-1.129,9.183,0.475,18.865,4.639,27.999c9.9,21.717,29.405,34.172,53.513,34.172s43.613-12.455,53.514-34.172 C123.385,73.288,124.103,59.234,119.483,47.611z M79.167,29.574c-2.36,0-4.837-0.355-7.362-1.055 c-0.483-0.133-0.998,0.114-1.191,0.581s-0.008,1.004,0.431,1.253c2.28,1.291,4.283,2.791,5.952,4.46 c3.998,3.998,6.077,8.937,6.955,11.5c-2.563-0.878-7.501-2.958-11.5-6.955c-1.668-1.668-3.169-3.671-4.46-5.952 c-0.249-0.439-0.785-0.625-1.253-0.431c-0.466,0.193-0.716,0.704-0.581,1.191c0.7,2.525,1.055,5.002,1.055,7.362 c0,5.654-2.021,10.616-3.213,13.05c-1.191-2.434-3.213-7.396-3.213-13.05c0-2.36,0.355-4.837,1.055-7.362 c0.135-0.487-0.115-0.998-0.581-1.191c-0.125-0.052-0.254-0.076-0.382-0.076c-0.351,0-0.688,0.186-0.871,0.507 c-1.291,2.281-2.792,4.284-4.46,5.952c-3.998,3.998-8.937,6.077-11.5,6.955c0.878-2.563,2.958-7.501,6.955-11.5 c1.669-1.669,3.671-3.169,5.952-4.46c0.439-0.249,0.625-0.786,0.431-1.253s-0.708-0.714-1.191-0.581 c-2.525,0.7-5.002,1.055-7.362,1.055c-5.654,0-10.617-2.021-13.05-3.213c2.433-1.191,7.396-3.213,13.05-3.213 c3.222,0,6.585,0.641,9.994,1.905c0.269,0.101,0.568,0.079,0.821-0.057c0.253-0.136,0.436-0.374,0.5-0.653 C61.347,19.216,61.78,14.029,62.175,9h3.65c0.395,5.029,0.828,10.216,2.026,15.342c0.065,0.279,0.248,0.518,0.5,0.653 c0.251,0.136,0.552,0.158,0.821,0.057c3.409-1.264,6.772-1.905,9.994-1.905c5.654,0,10.617,2.022,13.05,3.213 C89.783,27.552,84.821,29.574,79.167,29.574z M64,118.34c-23.291,0-42.132-12.029-51.694-33.001 c-0.217-0.476-0.423-0.954-0.626-1.433h104.628c-0.202,0.478-0.398,0.958-0.614,1.433C106.132,106.311,87.291,118.34,64,118.34z"/><path fill="#FFF" d="M61.867,71.521h-6.163c-0.4,0-0.762-0.239-0.919-0.607c-0.158-0.368-0.08-0.795,0.197-1.084l5.253-5.487 c0.627-0.655,0.611-1.706-0.035-2.342c-0.649-0.638-1.672-0.643-2.328-0.012L56.927,62.9c-0.397,0.383-1.03,0.372-1.414-0.025 c-0.383-0.397-0.372-1.031,0.025-1.414l0.946-0.912c1.443-1.39,3.691-1.378,5.119,0.026c1.421,1.399,1.455,3.709,0.077,5.15 l-3.634,3.796h3.821c0.552,0,1,0.448,1,1S62.419,71.521,61.867,71.521z"/><path fill="#FFF" d="M68.958,71.521c-1.567,0-3.018-0.792-3.784-2.068c-0.285-0.473-0.132-1.088,0.342-1.372 c0.474-0.285,1.087-0.131,1.372,0.342c0.407,0.677,1.201,1.098,2.07,1.098c1.289,0,2.338-0.919,2.338-2.048 s-1.049-2.048-2.338-2.048c-0.86,0-1.649,0.415-2.06,1.082c-0.234,0.381-0.695,0.56-1.124,0.438 c-0.431-0.122-0.728-0.515-0.728-0.962v-5.461c0-0.552,0.448-1,1-1h5.715c0.552,0,1,0.448,1,1s-0.448,1-1,1h-4.715v2.319 c0.586-0.269,1.239-0.416,1.912-0.416c2.392,0,4.338,1.816,4.338,4.048S71.351,71.521,68.958,71.521z"/><path fill="#FFF" d="M67.608,93.371h-7.217c-0.462,0-0.756-0.494-0.536-0.901l3.608-6.648c0.231-0.425,0.841-0.425,1.072,0 l3.608,6.648C68.365,92.877,68.071,93.371,67.608,93.371z"/><path fill="#FFF" d="M64,80.667c-0.552,0-1-0.448-1-1V75c0-0.552,0.448-1,1-1s1,0.448,1,1v4.667 C65,80.219,64.552,80.667,64,80.667z"/><path fill="#FFF" d="M54,80.667c-0.552,0-1-0.448-1-1V77c0-0.552,0.448-1,1-1s1,0.448,1,1v2.667 C55,80.219,54.552,80.667,54,80.667z"/><path fill="#FFF" d="M44,80.667c-0.552,0-1-0.448-1-1V77c0-0.552,0.448-1,1-1s1,0.448,1,1v2.667 C45,80.219,44.552,80.667,44,80.667z"/><path fill="#FFF" d="M34,80.667c-0.552,0-1-0.448-1-1V77c0-0.552,0.448-1,1-1s1,0.448,1,1v2.667 C35,80.219,34.552,80.667,34,80.667z"/><path fill="#FFF" d="M24,80.667c-0.552,0-1-0.448-1-1V77c0-0.552,0.448-1,1-1s1,0.448,1,1v2.667 C25,80.219,24.552,80.667,24,80.667z"/><path fill="#FFF" d="M14,80.667c-0.552,0-1-0.448-1-1V75c0-0.552,0.448-1,1-1s1,0.448,1,1v4.667 C15,80.219,14.552,80.667,14,80.667z"/><path fill="#FFF" d="M74,80.667c-0.552,0-1-0.448-1-1V77c0-0.552,0.448-1,1-1s1,0.448,1,1v2.667 C75,80.219,74.552,80.667,74,80.667z"/><path fill="#FFF" d="M84,80.667c-0.552,0-1-0.448-1-1V77c0-0.552,0.448-1,1-1s1,0.448,1,1v2.667 C85,80.219,84.552,80.667,84,80.667z"/><path fill="#FFF" d="M94,80.667c-0.552,0-1-0.448-1-1V77c0-0.552,0.448-1,1-1s1,0.448,1,1v2.667 C95,80.219,94.552,80.667,94,80.667z"/><path fill="#FFF" d="M104,80.667c-0.552,0-1-0.448-1-1V77c0-0.552,0.448-1,1-1s1,0.448,1,1v2.667 C105,80.219,104.553,80.667,104,80.667z"/><path fill="#FFF" d="M114,80.667c-0.552,0-1-0.448-1-1V75c0-0.552,0.448-1,1-1s1,0.448,1,1v4.667 C115,80.219,114.553,80.667,114,80.667z"/></svg>