<svg xmlns="http://www.w3.org/2000/svg"  viewBox="0 0 512 512" width="128px" height="128px"><path fill="#57a4ff" d="M254,495c132,0,239-107,239-239S386,17,254,17,15,124,15,256,122,495,254,495Zm0-431c106.04,0,192,85.96,192,192S360.04,448,254,448,62,362.04,62,256,147.96,64,254,64Z"/><polygon fill="#57a4ff" points="366.49 188.49 349.51 171.51 210 311.03 158.49 259.51 141.51 276.49 210 344.97 366.49 188.49"/><path fill="#004fac" d="M504,256A248,248,0,0,1,80.64,431.36a248.045,248.045,0,0,1-29-315.9,8,8,0,1,1,13.17,9.08A232.014,232.014,0,0,0,420.05,420.05,232.016,232.016,0,0,0,126.93,63.19l12.66,15.06L84.61,88l19.04-52.49,12.93,15.38A248.01,248.01,0,0,1,504,256Z"/><path fill="#004fac" d="M256,456c110.28,0,200-89.72,200-200S366.28,56,256,56,56,145.72,56,256,145.72,456,256,456Zm0-384c101.458,0,184,82.542,184,184S357.458,440,256,440,72,357.458,72,256,154.542,72,256,72Z"/><path fill="#004fac" d="M256,104a8,8,0,0,0,8-8V88a8,8,0,0,0-16,0v8A8,8,0,0,0,256,104Z"/><path fill="#004fac" d="M256,408a8,8,0,0,0-8,8v8a8,8,0,0,0,16,0v-8A8,8,0,0,0,256,408Z"/><path fill="#004fac" d="M416,264h8a8,8,0,0,0,0-16h-8a8,8,0,0,0,0,16Z"/><path fill="#004fac" d="M88,264h8a8,8,0,0,0,0-16H88a8,8,0,0,0,0,16Z"/><path fill="#004fac" d="M369.137,150.863a7.974,7.974,0,0,0,5.656-2.343l5.657-5.657a8,8,0,1,0-11.312-11.314l-5.658,5.657a8,8,0,0,0,5.657,13.657Z"/><path fill="#004fac" d="M137.206,382.794a7.974,7.974,0,0,0,5.657-2.343l5.658-5.657a8,8,0,1,0-11.315-11.315l-5.657,5.658a8,8,0,0,0,5.657,13.657Z"/><path fill="#004fac" d="M374.794,363.479a8,8,0,1,0-11.315,11.315l5.658,5.657a8,8,0,0,0,11.314-11.314Z"/><path fill="#004fac" d="M137.207,148.52a8,8,0,1,0,11.313-11.314l-5.658-5.657a8,8,0,1,0-11.312,11.314Z"/><path fill="#004fac" d="M137.857,282.143l68.486,68.485a8,8,0,0,0,11.314,0L374.143,194.143a8,8,0,0,0,0-11.315l-16.971-16.971a8,8,0,0,0-11.315,0L212,299.716l-45.857-45.859a8,8,0,0,0-11.315,0l-16.971,16.971A8,8,0,0,0,137.857,282.143Zm22.628-11.315,45.858,45.859a8,8,0,0,0,11.314,0L351.515,182.828l5.657,5.657L212,333.657l-57.172-57.172Z"/></svg>